{"title":"Masters of Sex S04E01 Freefall 1080p AMZN WEBRip HEVC DD5.1 x265","uid":15737781,"size":1012363435,"categoryP":"video","categoryS":"hd___tv_shows","magnet":"?xt=urn:btih:4121dc4ecb986deaf27cf3841c65704a207d9b90&amp;dn=Masters+of+Sex+S04E01+Freefall+1080p+AMZN+WEBRip+HEVC+DD5.1+x265&amp;tr=udp%3A%2F%2Ftracker.leechers-paradise.org%3A6969&amp;tr=udp%3A%2F%2Fzer0day.ch%3A1337&amp;tr=udp%3A%2F%2Fopen.demonii.com%3A1337&amp;tr=udp%3A%2F%2Ftracker.coppersurfer.tk%3A6969&amp;tr=udp%3A%2F%2Fexodus.desync.com%3A6969","seeders":2,"leechers":2,"uploader":"nayhtut","files":1,"time":1472860111,"description":"[Screenshots]\r\n \nhttps://s14.postimg.org/phzt0gscx/Masters_of_Sex_S04_E01_Freefall_1080p_AMZN_WEBRip.jpg \nhttps://s14.postimg.org/mcjsnzz4h/Masters_of_Sex_S04_E01_Freefall_1080p_AMZN_WEBRip.jpg \nhttps://s14.postimg.org/qa72delxt/Masters_of_Sex_S04_E01_Freefall_1080p_AMZN_WEBRip.jpg\r\n\r\n\r\nSource:  Masters of Sex S04E01 Freefall 1080p AMZN WEBRip DD5 1 x264-CasStudio (4.47 GB)\r\n \r\n__--__--__--__--__--__--__--__--__--__--__--__--__--\r\n\r\n\r\nComplete name                            : Masters.of.Sex.S04E01.Freefall.1080p.AMZN.WEBRip.HEVC.DD5.1.x265.mkv\r\nFormat                                   : Matroska\r\nFormat version                           : Version 4 / Version 2\r\nFile size                                : 965 MiB\r\nDuration                                 : 57mn 56s\r\nOverall bit rate                         : 2 330 Kbps\r\nWriting application                      : Lavf57.25.100\r\nWriting library                          : Lavf57.25.100\r\n\r\nVideo\r\n\r\nID                                       : 1\r\nFormat                                   : V_MPEGH/ISO/HEVC\r\nCodec ID                                 : V_MPEGH/ISO/HEVC\r\nDuration                                 : 57mn 56s\r\nBit rate                                 : 1 899 Kbps\r\nWidth                                    : 1 920 pixels\r\nHeight                                   : 1 080 pixels\r\nDisplay aspect ratio                     : 16:9\r\nFrame rate                               : 25.000 fps\r\nBits/(Pixel*Frame)                       : 0.037\r\nStream size                              : 787 MiB (82%)\r\nWriting library                          : Lavc57.48.101 libx265\r\nLanguage                                 : English\r\nDefault                                  : Yes\r\nForced                                   : No\r\nDURATION                                 : 00:57:56.171000000\r\n\r\n\r\nAudio\r\n\r\nID                                       : 2\r\nFormat                                   : AC-3\r\nFormat/Info                              : Audio Coding 3\r\nMode extension                           : CM (complete main)\r\nFormat settings, Endianness              : Big\r\nCodec ID                                 : A_AC3\r\nDuration                                 : 57mn 56s\r\nBit rate mode                            : Constant\r\nBit rate                                 : 384 Kbps\r\nChannel(s)                               : 6 channels\r\nChannel positions                        : Front: L C R, Side: L R, LFE\r\nSampling rate                            : 48.0 KHz\r\nBit depth                                : 16 bits\r\nCompression mode                         : Lossy\r\nStream size                              : 159 MiB (16%)\r\nWriting library                          : Lavc57.24.102 ac3\r\nLanguage                                 : English\r\nDefault                                  : Yes\r\nForced                                   : No\r\nDURATION                                 : 00:57:56.159000000\r\n\r\nText\r\n\r\nID                                       : 3\r\nFormat                                   : ASS\r\nCodec ID                                 : S_TEXT/ASS\r\nCodec ID/Info                            : Advanced Sub Station Alpha\r\nCompression mode                         : Lossless\r\nWriting library                          : Lavc57.48.101 ssa\r\nLanguage                                 : English\r\nDefault                                  : No\r\nForced                                   : No\r\nDURATION                                 : 00:56:49.791000000","torrent":{"xt":"urn:btih:4121dc4ecb986deaf27cf3841c65704a207d9b90","amp;dn":"Masters+of+Sex+S04E01+Freefall+1080p+AMZN+WEBRip+HEVC+DD5.1+x265","amp;tr":["udp%3A%2F%2Ftracker.leechers-paradise.org%3A6969","udp%3A%2F%2Fzer0day.ch%3A1337","udp%3A%2F%2Fopen.demonii.com%3A1337","udp%3A%2F%2Ftracker.coppersurfer.tk%3A6969","udp%3A%2F%2Fexodus.desync.com%3A6969"],"infoHash":"4121dc4ecb986deaf27cf3841c65704a207d9b90","infoHashBuffer":{"type":"Buffer","data":[65,33,220,78,203,152,109,234,242,124,243,132,28,101,112,74,32,125,155,144]},"announce":[],"urlList":[]}}